<svg width="68" height="68" viewBox="0 0 68 68" fill="none" xmlns="http://www.w3.org/2000/svg">
<path fill-rule="evenodd" clip-rule="evenodd" d="M11.3333 8.5H21.25C22.8083 8.5 24.0833 9.775 24.0833 11.3333C24.0833 14.875 24.65 18.275 25.6983 21.4483C26.01 22.44 25.7833 23.545 24.99 24.3383L18.7567 30.5717C22.8367 38.59 29.41 45.135 37.4283 49.2433L43.6617 43.01C44.2283 42.4717 44.9367 42.1883 45.6733 42.1883C45.9567 42.1883 46.2683 42.2167 46.5517 42.33C49.725 43.3783 53.1533 43.945 56.6667 43.945C58.225 43.945 59.5 45.22 59.5 46.7783V56.6667C59.5 58.225 58.225 59.5 56.6667 59.5C30.0617 59.5 8.5 37.9383 8.5 11.3333C8.5 9.775 9.775 8.5 11.3333 8.5ZM18.53 14.1667C18.7 16.6883 19.125 19.1533 19.805 21.505L16.405 24.905C15.2433 21.505 14.5067 17.9067 14.2517 14.1667H18.53ZM46.4667 48.2233C48.875 48.9033 51.34 49.3283 53.8333 49.4983V53.72C50.0933 53.465 46.495 52.7283 43.0667 51.595L46.4667 48.2233Z" fill="#6C63FF"/>
</svg>
