<svg width="84" height="84" viewBox="0 0 84 84" fill="none" xmlns="http://www.w3.org/2000/svg">
<path d="M70.875 14.4375H7.875V5.25C7.875 3.79969 9.04969 2.625 10.5 2.625H68.25C69.7003 2.625 70.875 3.79969 70.875 5.25V14.4375Z" fill="#FFB6B6"/>
<path d="M43.3013 66.936L66.9229 43.3144L74.7965 51.188L51.1749 74.8096L43.3013 66.936Z" fill="#FFB6B6"/>
<path d="M11.8125 70.875H38.0625V77.4375H11.8125V70.875Z" fill="#FFB6B6"/>
<path d="M82.6875 42.3189C82.6875 38.5245 79.6005 35.4375 75.8074 35.4375C74.5041 35.4375 73.2664 35.8129 72.1875 36.4849V5.25C72.1875 3.07912 70.4209 1.3125 68.25 1.3125H10.5C8.32912 1.3125 6.5625 3.07912 6.5625 5.25V17.0625H5.25C3.07912 17.0625 1.3125 18.8291 1.3125 21V42C1.3125 44.1709 3.07912 45.9375 5.25 45.9375H6.5625V78.75C6.5625 80.9209 8.32912 82.6875 10.5 82.6875H68.25C70.4209 82.6875 72.1875 80.9209 72.1875 78.75V55.6684L80.6728 47.1831C81.9722 45.8837 82.6875 44.1564 82.6875 42.3189ZM3.9375 42V21C3.9375 20.2768 4.5255 19.6875 5.25 19.6875H34.125C34.8495 19.6875 35.4375 20.2768 35.4375 21V42C35.4375 42.7232 34.8495 43.3125 34.125 43.3125H5.25C4.5255 43.3125 3.9375 42.7232 3.9375 42ZM69.5625 78.75C69.5625 79.4745 68.9745 80.0625 68.25 80.0625H10.5C9.7755 80.0625 9.1875 79.4745 9.1875 78.75V45.9375H34.125C36.2959 45.9375 38.0625 44.1709 38.0625 42V21C38.0625 18.8291 36.2959 17.0625 34.125 17.0625H9.1875V5.25C9.1875 4.52681 9.7755 3.9375 10.5 3.9375H68.25C68.9745 3.9375 69.5625 4.52681 69.5625 5.25V38.8316L66.9375 41.4566V32.8125H43.3125V45.9375H62.4566L42.0761 66.318L40.4539 77.6711L51.807 76.0489L69.5625 58.2934V78.75ZM64.3125 43.3125H45.9375V35.4375H64.3125V43.3125ZM78.8169 45.3272L50.568 73.5761L43.5461 74.5789L44.5489 67.557L72.7978 39.3094H72.7991C73.6011 38.5048 74.6694 38.0625 75.8074 38.0625C78.1541 38.0625 80.0625 39.9722 80.0625 42.3189C80.0625 43.4398 79.6084 44.5358 78.8169 45.3272Z" fill="black"/>
<path d="M15.75 6.5625H18.375V9.1875H15.75V6.5625Z" fill="black"/>
<path d="M10.5 6.5625H13.125V9.1875H10.5V6.5625Z" fill="black"/>
<path d="M21 6.5625H23.625V9.1875H21V6.5625Z" fill="black"/>
<path d="M15.8327 38.9688L21.0954 23.2136L23.5853 24.0453L18.3225 39.8005L15.8327 38.9688Z" fill="black"/>
<path d="M25.3221 27.1779L29.6441 31.5L25.3221 35.822L27.1779 37.6779L33.3559 31.5L27.1779 25.322L25.3221 27.1779Z" fill="black"/>
<path d="M12.1971 25.322L6.01912 31.5L12.1971 37.6779L14.0529 35.822L9.73087 31.5L14.0529 27.1779L12.1971 25.322Z" fill="black"/>
<path d="M46.3106 69.9453L69.9322 46.3237L71.7881 48.1796L48.1665 71.8012L46.3106 69.9453Z" fill="black"/>
<path d="M66.9375 17.0625H43.3125V30.1875H66.9375V17.0625ZM64.3125 27.5625H45.9375V19.6875H64.3125V27.5625Z" fill="black"/>
<path d="M11.8125 74.8125H32.8125V77.4375H11.8125V74.8125Z" fill="black"/>
<path d="M11.8125 69.5625H38.0625V72.1875H11.8125V69.5625Z" fill="black"/>
<path d="M14.4375 66.9375H17.0625V64.3125H19.6875V61.6875H17.0625V48.5625H14.4375V61.6875H11.8125V64.3125H14.4375V66.9375Z" fill="black"/>
<path d="M24.9375 66.9375H27.5625V53.8125H30.1875V51.1875H27.5625V48.5625H24.9375V51.1875H22.3125V53.8125H24.9375V66.9375Z" fill="black"/>
<path d="M40.6875 59.0625V56.4375H38.0625V48.5625H35.4375V56.4375H32.8125V59.0625H35.4375V66.9375H38.0625V59.0625H40.6875Z" fill="black"/>
<path d="M35.4375 74.8125H38.0625V77.4375H35.4375V74.8125Z" fill="black"/>
<path d="M64.3125 69.5625H66.9375V72.1875H64.3125V69.5625Z" fill="black"/>
<path d="M64.3125 74.8125H66.9375V77.4375H64.3125V74.8125Z" fill="black"/>
<path d="M64.3125 64.3125H66.9375V66.9375H64.3125V64.3125Z" fill="black"/>
</svg>
