<svg width="84" height="84" viewBox="0 0 84 84" fill="none" xmlns="http://www.w3.org/2000/svg">
<path d="M59.9905 10.8845L49.7897 21.0853L49.8304 21.126C55.8561 23.3861 60.6428 28.1649 62.8963 34.1919L62.9134 34.209L73.1141 24.0082L59.9905 10.8845Z" fill="#FFB6B6"/>
<path d="M22.3125 74.8126L33.0606 64.0645C33.0382 64.0173 33.0107 63.9727 32.9871 63.9254L27.0559 56.5846C24.9139 54.4846 22.7824 52.3728 21.3675 49.5457L21.3504 49.5247L9.1875 61.6876L22.3125 74.8126Z" fill="#FFB6B6"/>
<path d="M79.9903 63H82.6875V55.125H79.9903C78.9692 55.125 78.057 54.5147 77.6462 53.5211C77.2485 52.5682 77.4598 51.4854 78.183 50.7609L80.0927 48.8499L74.5224 43.2797L72.6101 45.1907C71.8883 45.9152 70.8041 46.1226 69.9326 45.7656L69.8001 45.7052C68.859 45.3167 68.25 44.4058 68.25 43.3847V40.6875H64.2469C64.2718 41.1246 64.3125 41.5564 64.3125 42C64.3125 46.3536 63 49.3946 61.1664 51.9159L61.2754 51.7965C62.2099 51.4041 63.2363 51.1875 64.3125 51.1875C68.6569 51.1875 72.1875 54.7181 72.1875 59.0625C72.1875 63.4069 68.6569 66.9375 64.3125 66.9375C59.9681 66.9375 56.4375 63.4069 56.4375 59.0625C56.4375 58.2461 56.5622 57.4586 56.7932 56.7171C54.0763 59.367 51.3673 62.0235 50.1008 66.1238L50.0456 66.0975C50.7347 66.5687 51.1875 67.3536 51.1875 68.25C51.1875 69.2475 50.6258 70.1032 49.8068 70.5482L54.1013 74.844L56.0136 72.933C56.7354 72.2072 57.8169 71.9972 58.6911 72.3581L58.8236 72.4159C59.7647 72.8083 60.375 73.7192 60.375 74.7403V77.4375H68.25V74.7403C68.25 73.7192 68.8603 72.807 69.8539 72.3962C70.8068 71.9998 71.8896 72.2085 72.6128 72.933L74.5238 74.844L80.094 69.2737L78.1843 67.3628C77.4611 66.6383 77.2498 65.5554 77.6685 64.5527C78.0583 63.6103 78.9692 63 79.9903 63Z" fill="#FFB6B6"/>
<path d="M50.0469 66.0975C49.812 65.9373 49.5508 65.8126 49.2699 65.7339L50.0469 66.0975Z" fill="#FFB6B6"/>
<path d="M64.3125 63C66.4834 63 68.25 61.2334 68.25 59.0625C68.25 56.8916 66.4834 55.125 64.3125 55.125C62.1416 55.125 60.375 56.8916 60.375 59.0625C60.375 61.2334 62.1416 63 64.3125 63ZM64.3125 57.75C65.0357 57.75 65.625 58.338 65.625 59.0625C65.625 59.787 65.0357 60.375 64.3125 60.375C63.5893 60.375 63 59.787 63 59.0625C63 58.338 63.5893 57.75 64.3125 57.75Z" fill="black"/>
<path d="M82.6875 11.9057C82.6875 6.06506 77.9349 1.3125 72.0943 1.3125C69.2646 1.3125 66.6041 2.415 64.6039 4.41525L49.4314 19.5891C47.4692 18.9302 45.3889 18.5469 43.2403 18.4327C41.4291 15.2683 38.0257 13.125 34.125 13.125C33.1262 13.125 32.1628 13.2746 31.2454 13.5358C28.98 9.27675 24.5792 6.5625 19.6875 6.5625C12.4504 6.5625 6.5625 12.4504 6.5625 19.6875C6.5625 20.6929 6.68587 21.6825 6.91031 22.6511C3.675 23.6302 1.3125 26.6372 1.3125 30.1875C1.3125 34.5306 4.84444 38.0625 9.1875 38.0625H18.7084C18.4905 39.3606 18.375 40.6783 18.375 42C18.375 44.8888 18.9092 47.2395 19.7715 49.2476L8.06269 60.9577L1.54744 77.8969C1.39125 78.3011 1.3125 78.7264 1.3125 79.1608C1.3125 81.1059 2.89538 82.6875 4.83919 82.6875C5.27363 82.6875 5.69887 82.6074 6.10444 82.4526L23.0436 75.9373L31.605 67.3746C31.5407 67.6568 31.5 67.9481 31.5 68.25C31.5 69.2619 31.8951 70.1768 32.5238 70.875C31.8938 71.5732 31.5 72.4881 31.5 73.5C31.5 75.3244 32.7534 76.8495 34.44 77.2931C35.5583 80.4956 38.5534 82.6875 42 82.6875C45.4466 82.6875 48.4417 80.4956 49.56 77.2931C51.2466 76.8495 52.5 75.3244 52.5 73.5C52.5 72.4881 52.1049 71.5732 51.4762 70.875C52.1063 70.1768 52.5 69.2619 52.5 68.25C52.5 67.3181 52.1614 66.4729 51.618 65.7969C52.4344 63.5933 53.7141 61.8306 55.2038 60.2031C55.7681 64.7312 59.6334 68.25 64.3125 68.25C69.3788 68.25 73.5 64.1274 73.5 59.0625C73.5 53.9976 69.3788 49.875 64.3125 49.875C64.1839 49.875 64.0592 49.8881 63.9319 49.8934C64.9648 47.7461 65.625 45.2064 65.625 42C65.625 39.4131 65.1814 36.9246 64.3965 34.5857L79.5848 19.3974C81.585 17.3959 82.6875 14.7354 82.6875 11.9057ZM3.9375 30.1875C3.9375 27.2921 6.29212 24.9375 9.1875 24.9375C12.0829 24.9375 14.4375 27.2921 14.4375 30.1875H17.0625C17.0625 25.9586 13.7091 22.5068 9.5235 22.3296C9.30037 21.4712 9.1875 20.5853 9.1875 19.6875C9.1875 13.8981 13.8981 9.1875 19.6875 9.1875C23.5266 9.1875 26.9916 11.2744 28.8343 14.5701C26.0361 16.212 24.0594 19.1034 23.6906 22.4779C21.399 23.0422 19.6875 25.0989 19.6875 27.5625H22.3125C22.3125 26.1148 23.4898 24.9375 24.9375 24.9375C26.3852 24.9375 27.5625 26.1148 27.5625 27.5625H30.1875C30.1875 25.1541 28.5495 23.142 26.3353 22.5251C26.8734 18.7031 30.156 15.75 34.125 15.75C38.4681 15.75 42 19.2819 42 23.625C42 24.3154 41.8871 24.9913 41.7113 25.6502C39.5588 26.7277 38.0625 28.9328 38.0625 31.5H40.6875C40.6875 29.3291 42.4541 27.5625 44.625 27.5625C46.7959 27.5625 48.5625 29.3291 48.5625 31.5C48.5625 33.6709 46.7959 35.4375 44.625 35.4375H9.1875C6.29212 35.4375 3.9375 33.0829 3.9375 30.1875ZM35.4375 38.0625V42C35.4375 44.1709 37.2041 45.9375 39.375 45.9375H49.875C50.5982 45.9375 51.1875 46.5255 51.1875 47.25C51.1875 47.9745 50.5982 48.5625 49.875 48.5625H36.75C34.5791 48.5625 32.8125 50.3291 32.8125 52.5C32.8125 54.6709 34.5791 56.4375 36.75 56.4375H39.375C40.0982 56.4375 40.6875 57.0255 40.6875 57.75V64.3125H35.4375C35.1711 64.3125 34.9112 64.3401 34.6605 64.3913C33.1616 60.7071 30.5865 58.1792 28.0796 55.734C24.4387 52.1837 21 48.8289 21 42C21 40.6731 21.1588 39.3579 21.4043 38.0625H35.4375ZM49.875 68.25C49.875 68.9745 49.2857 69.5625 48.5625 69.5625H35.4375C34.7143 69.5625 34.125 68.9745 34.125 68.25C34.125 67.5255 34.7143 66.9375 35.4375 66.9375H48.5625C49.2857 66.9375 49.875 67.5255 49.875 68.25ZM5.16337 80.0021C4.59506 80.2226 3.9375 79.7698 3.9375 79.1608C3.9375 79.0492 3.9585 78.9403 3.99656 78.8379L5.31169 75.4176L8.58113 78.687L5.16337 80.0021ZM21.5814 73.6877L11.2626 77.6567L6.34331 72.7374L10.3123 62.4186L21.0578 51.6731C22.2902 53.6091 23.8179 55.2234 25.3798 56.7643L14.8221 67.3221L16.6779 69.1779L27.2541 58.6018C28.8684 60.2031 30.3673 61.8227 31.4724 63.7954L21.5814 73.6877ZM42 80.0625C40.0614 80.0625 38.3329 79.0309 37.3747 77.4375H46.6252C45.6671 79.0309 43.9386 80.0625 42 80.0625ZM48.5625 74.8125H35.4375C34.7143 74.8125 34.125 74.2245 34.125 73.5C34.125 72.7755 34.7143 72.1875 35.4375 72.1875H48.5625C49.2857 72.1875 49.875 72.7755 49.875 73.5C49.875 74.2245 49.2857 74.8125 48.5625 74.8125ZM49.3395 64.3913C49.0888 64.3401 48.8289 64.3125 48.5625 64.3125H43.3125V57.75C43.3125 55.5791 41.5459 53.8125 39.375 53.8125H36.75C36.0268 53.8125 35.4375 53.2245 35.4375 52.5C35.4375 51.7755 36.0268 51.1875 36.75 51.1875H49.875C52.0459 51.1875 53.8125 49.4209 53.8125 47.25C53.8125 45.0791 52.0459 43.3125 49.875 43.3125H39.375C38.6518 43.3125 38.0625 42.7245 38.0625 42V38.0625H44.625C48.2436 38.0625 51.1875 35.1186 51.1875 31.5C51.1875 27.8814 48.2436 24.9375 44.625 24.9375C44.5882 24.9375 44.5541 24.948 44.5174 24.948C44.5738 24.5096 44.625 24.0713 44.625 23.625C44.625 22.7666 44.5095 21.9358 44.3153 21.1365C54.7785 22.302 63 31.2821 63 42C63 48.8289 59.5612 52.1837 55.9204 55.734C53.4135 58.1792 50.8384 60.7071 49.3395 64.3913ZM64.3125 52.5C67.9311 52.5 70.875 55.4439 70.875 59.0625C70.875 62.6811 67.9311 65.625 64.3125 65.625C60.6939 65.625 57.75 62.6811 57.75 59.0625C57.75 58.4942 57.8379 57.9351 57.981 57.3904C59.4129 55.9926 60.8475 54.5646 62.0852 52.9134C62.7992 52.6536 63.5421 52.5 64.3125 52.5ZM59.5573 26.2999L67.4809 18.375L65.625 16.5191L57.7041 24.4401C56.0188 22.9281 54.1223 21.6562 52.059 20.6719L63 9.73088L74.2691 21L63.3216 31.9476C62.3385 29.8843 61.068 27.9864 59.5573 26.2999ZM76.125 19.1441L64.8559 7.875L66.4598 6.27112C67.9652 4.767 69.9654 3.9375 72.0943 3.9375C76.4873 3.9375 80.0625 7.51275 80.0625 11.9057C80.0625 14.0332 79.2343 16.0348 77.7289 17.5403L76.125 19.1441Z" fill="black"/>
</svg>
