<svg width="84" height="84" viewBox="0 0 84 84" fill="none" xmlns="http://www.w3.org/2000/svg">
<path d="M53.8125 53.8125H45.9375V47.25H43.3125V31.5H53.8125V53.8125Z" fill="#FFB6B6"/>
<path d="M78.75 2.625H21C19.5497 2.625 18.375 3.79969 18.375 5.25V14.0976H81.375V5.25C81.375 3.79969 80.2003 2.625 78.75 2.625Z" fill="#FFB6B6"/>
<path d="M61.6875 18.375H77.4375V28.875H61.6875V18.375Z" fill="#FFB6B6"/>
<path d="M23.625 61.6875H26.25V64.3125H23.625V61.6875Z" fill="black"/>
<path d="M28.875 61.6875H31.5V64.3125H28.875V61.6875Z" fill="black"/>
<path d="M34.125 61.6875H36.75V64.3125H34.125V61.6875Z" fill="black"/>
<path d="M22.3125 6.5625H24.9375V9.1875H22.3125V6.5625Z" fill="black"/>
<path d="M32.8125 6.5625H35.4375V9.1875H32.8125V6.5625Z" fill="black"/>
<path d="M27.5625 6.5625H30.1875V9.1875H27.5625V6.5625Z" fill="black"/>
<path d="M22.3125 17.0625H24.9375V19.6875H22.3125V17.0625Z" fill="black"/>
<path d="M27.5625 17.0625H77.4375V19.6875H27.5625V17.0625Z" fill="black"/>
<path d="M61.6875 22.3125H77.4375V24.9375H61.6875V22.3125Z" fill="black"/>
<path d="M61.6875 27.5625H77.4375V30.1875H61.6875V27.5625Z" fill="black"/>
<path d="M10.5 53.8125H36.75C38.9209 53.8125 40.6875 52.0459 40.6875 49.875V34.125C40.6875 31.9541 38.9209 30.1875 36.75 30.1875H10.5C8.32912 30.1875 6.5625 31.9541 6.5625 34.125V49.875C6.5625 52.0459 8.32912 53.8125 10.5 53.8125ZM9.1875 34.125C9.1875 33.4018 9.77681 32.8125 10.5 32.8125H36.75C37.4732 32.8125 38.0625 33.4018 38.0625 34.125V49.875C38.0625 50.5982 37.4732 51.1875 36.75 51.1875H10.5C9.77681 51.1875 9.1875 50.5982 9.1875 49.875V34.125Z" fill="black"/>
<path d="M19.7627 49.4385L25.0089 33.6834L27.5 34.5129L22.2538 50.268L19.7627 49.4385Z" fill="black"/>
<path d="M29.8029 48.1779L35.9809 42L29.8029 35.822L27.9471 37.6779L32.2691 42L27.9471 46.322L29.8029 48.1779Z" fill="black"/>
<path d="M19.3029 46.322L14.9809 42L19.3029 37.6779L17.4471 35.822L11.2691 42L17.4471 48.1779L19.3029 46.322Z" fill="black"/>
<path d="M43.3125 30.1875H53.8125V32.8125H43.3125V30.1875Z" fill="black"/>
<path d="M43.3125 35.4375H53.8125V38.0625H43.3125V35.4375Z" fill="black"/>
<path d="M43.3125 40.6875H53.8125V43.3125H43.3125V40.6875Z" fill="black"/>
<path d="M43.3125 45.9375H53.8125V48.5625H43.3125V45.9375Z" fill="black"/>
<path d="M51.1875 51.1875H53.8125V53.8125H51.1875V51.1875Z" fill="black"/>
<path d="M45.9375 51.1875H48.5625V53.8125H45.9375V51.1875Z" fill="black"/>
<path d="M78.75 1.3125H21C18.8291 1.3125 17.0625 3.07912 17.0625 5.25V24.9375H7.875C4.25644 24.9375 1.3125 27.8814 1.3125 31.5V63C1.3125 66.6186 4.25644 69.5625 7.875 69.5625H20.4908L18.7412 74.8125H14.4375C12.2666 74.8125 10.5 76.5791 10.5 78.75V82.6875H49.875V78.75C49.875 76.5791 48.1084 74.8125 45.9375 74.8125H41.6338L39.8843 69.5625H52.5C56.1186 69.5625 59.0625 66.6186 59.0625 63V61.6875H78.75C80.9209 61.6875 82.6875 59.9209 82.6875 57.75V5.25C82.6875 3.07912 80.9209 1.3125 78.75 1.3125ZM7.875 27.5625H52.5C54.6709 27.5625 56.4375 29.3291 56.4375 31.5V56.4375H3.9375V31.5C3.9375 29.3291 5.70412 27.5625 7.875 27.5625ZM59.0625 35.4375H74.8125V53.8125H59.0625V35.4375ZM47.25 78.75V80.0625H13.125V78.75C13.125 78.0268 13.7143 77.4375 14.4375 77.4375H45.9375C46.6607 77.4375 47.25 78.0268 47.25 78.75ZM38.8657 74.8125H21.5093L23.2588 69.5625H37.1162L38.8657 74.8125ZM52.5 66.9375H7.875C5.70412 66.9375 3.9375 65.1709 3.9375 63V59.0625H56.4375V63C56.4375 65.1709 54.6709 66.9375 52.5 66.9375ZM80.0625 57.75C80.0625 58.4732 79.4732 59.0625 78.75 59.0625H59.0625V56.4375H77.4375V32.8125H59.0625V31.5C59.0625 27.8814 56.1186 24.9375 52.5 24.9375H19.6875V5.25C19.6875 4.52681 20.2768 3.9375 21 3.9375H78.75C79.4732 3.9375 80.0625 4.52681 80.0625 5.25V57.75Z" fill="black"/>
</svg>
