<svg width="808" height="351" viewBox="0 0 808 351" fill="none" xmlns="http://www.w3.org/2000/svg">
<g clip-path="url(#clip0)">
<path d="M728.84 144.798H254.782C252.769 144.798 250.839 145.599 249.415 147.024C247.992 148.449 247.192 150.382 247.192 152.398C247.192 154.414 247.992 156.347 249.415 157.772C250.839 159.197 252.769 159.998 254.782 159.998H268.21V341.816C268.21 343.832 269.009 345.765 270.433 347.19C271.856 348.616 273.786 349.416 275.799 349.416C277.812 349.416 279.743 348.616 281.166 347.19C282.589 345.765 283.389 343.832 283.389 341.816L283.504 159.998H663.984L699.065 341.816C699.065 343.832 699.865 345.765 701.288 347.19C702.711 348.616 704.642 349.416 706.655 349.416C708.668 349.416 710.598 348.616 712.021 347.19C713.445 345.765 714.244 343.832 714.244 341.816L716.452 159.998H728.84C730.853 159.998 732.783 159.197 734.206 157.772C735.63 156.347 736.429 154.414 736.429 152.398C736.429 150.382 735.63 148.449 734.206 147.024C732.783 145.599 730.853 144.798 728.84 144.798Z" fill="#CCCCCC"/>
<path d="M336.954 110.933V143.117H256.431C254.321 143.191 252.217 142.847 250.239 142.107C248.261 141.366 246.448 140.242 244.904 138.8C243.36 137.358 242.115 135.625 241.239 133.7C240.364 131.776 239.876 129.698 239.802 127.585C239.729 125.472 240.072 123.365 240.812 121.384C241.551 119.404 242.673 117.588 244.114 116.042C245.554 114.496 247.284 113.249 249.206 112.372C251.128 111.495 253.203 111.006 255.313 110.933C255.686 110.92 256.058 110.92 256.431 110.933L336.954 110.933Z" fill="#F2F2F2"/>
<path d="M338.931 142.87C338.931 143.198 338.801 143.513 338.569 143.745C338.337 143.977 338.023 144.107 337.695 144.107H254.997C250.508 144.104 246.203 142.316 243.03 139.136C239.856 135.956 238.074 131.644 238.074 127.149C238.074 122.653 239.856 118.341 243.03 115.161C246.203 111.981 250.508 110.193 254.997 110.19H337.695C337.858 110.19 338.019 110.221 338.169 110.283C338.32 110.345 338.456 110.437 338.571 110.552C338.687 110.667 338.778 110.803 338.84 110.954C338.903 111.104 338.935 111.265 338.935 111.428C338.935 111.591 338.903 111.752 338.84 111.902C338.778 112.053 338.687 112.189 338.571 112.304C338.456 112.419 338.32 112.511 338.169 112.573C338.019 112.635 337.858 112.666 337.695 112.666H254.997C251.165 112.672 247.492 114.2 244.784 116.916C242.077 119.631 240.556 123.311 240.556 127.149C240.556 130.986 242.077 134.667 244.784 137.382C247.492 140.098 251.165 141.626 254.997 141.632H337.695C338.023 141.632 338.337 141.762 338.569 141.994C338.801 142.227 338.931 142.541 338.931 142.87Z" fill="#6C63FF"/>
<path d="M336.954 118.36H250.423C250.358 118.36 250.295 118.335 250.248 118.289C250.202 118.243 250.175 118.18 250.175 118.115C250.174 118.049 250.199 117.986 250.245 117.939C250.291 117.893 250.353 117.866 250.419 117.865H336.954C337.019 117.866 337.081 117.892 337.127 117.938C337.173 117.985 337.198 118.047 337.198 118.112C337.198 118.178 337.173 118.24 337.127 118.287C337.081 118.333 337.019 118.359 336.954 118.36Z" fill="#CCCCCC"/>
<path d="M336.954 124.302H250.423C250.358 124.302 250.295 124.277 250.248 124.231C250.202 124.185 250.175 124.122 250.175 124.056C250.174 123.991 250.199 123.928 250.245 123.881C250.291 123.834 250.353 123.808 250.419 123.807H336.954C337.019 123.807 337.081 123.834 337.127 123.88C337.173 123.926 337.198 123.989 337.198 124.054C337.198 124.119 337.173 124.182 337.127 124.228C337.081 124.275 337.019 124.301 336.954 124.302Z" fill="#CCCCCC"/>
<path d="M336.954 130.244H250.423C250.358 130.244 250.295 130.218 250.248 130.172C250.202 130.126 250.175 130.064 250.175 129.998C250.174 129.933 250.199 129.87 250.245 129.823C250.291 129.776 250.353 129.749 250.419 129.748H336.954C337.019 129.749 337.081 129.775 337.127 129.822C337.173 129.868 337.198 129.931 337.198 129.996C337.198 130.061 337.173 130.124 337.127 130.17C337.081 130.216 337.019 130.243 336.954 130.244Z" fill="#CCCCCC"/>
<path d="M336.954 136.185H250.423C250.358 136.186 250.295 136.16 250.248 136.114C250.202 136.068 250.175 136.005 250.175 135.94C250.174 135.874 250.199 135.811 250.245 135.764C250.291 135.718 250.353 135.691 250.419 135.69H336.954C337.019 135.691 337.081 135.717 337.127 135.763C337.173 135.81 337.198 135.872 337.198 135.938C337.198 136.003 337.173 136.065 337.127 136.112C337.081 136.158 337.019 136.185 336.954 136.185Z" fill="#CCCCCC"/>
<path d="M321.774 77.0247V109.209H241.252C236.99 109.358 232.844 107.805 229.725 104.892C226.607 101.979 224.771 97.9446 224.623 93.6767C224.475 89.4088 226.026 85.2567 228.934 82.1338C231.843 79.011 235.872 77.1732 240.134 77.0247C240.506 77.0117 240.879 77.0117 241.252 77.0247H321.774Z" fill="#F2F2F2"/>
<path d="M323.752 108.961C323.752 109.29 323.622 109.605 323.39 109.837C323.158 110.069 322.844 110.199 322.516 110.199H239.818C235.326 110.199 231.019 108.413 227.843 105.232C224.667 102.052 222.883 97.7384 222.883 93.2407C222.883 88.7429 224.667 84.4294 227.843 81.2491C231.019 78.0687 235.326 76.282 239.818 76.282H322.516C322.678 76.282 322.839 76.314 322.989 76.3762C323.139 76.4384 323.275 76.5296 323.39 76.6445C323.505 76.7595 323.596 76.8959 323.658 77.0461C323.72 77.1963 323.752 77.3573 323.752 77.5198C323.752 77.6824 323.72 77.8433 323.658 77.9935C323.596 78.1437 323.505 78.2802 323.39 78.3951C323.275 78.5101 323.139 78.6012 322.989 78.6635C322.839 78.7257 322.678 78.7577 322.516 78.7577H239.818C235.982 78.7577 232.303 80.2836 229.591 82.9997C226.879 85.7157 225.355 89.3995 225.355 93.2407C225.355 97.0818 226.879 100.766 229.591 103.482C232.303 106.198 235.982 107.724 239.818 107.724H322.516C322.844 107.724 323.158 107.854 323.39 108.086C323.622 108.318 323.752 108.633 323.752 108.961Z" fill="#3F3D56"/>
<path d="M321.774 84.4518H235.244C235.179 84.4522 235.116 84.4266 235.069 84.3806C235.023 84.3346 234.996 84.272 234.995 84.2065C234.995 84.141 235.02 84.078 235.066 84.0311C235.112 83.9843 235.174 83.9575 235.239 83.9567H321.774C321.839 83.9573 321.902 83.9837 321.948 84.0301C321.993 84.0764 322.019 84.139 322.019 84.2042C322.019 84.2695 321.993 84.3321 321.948 84.3785C321.902 84.4248 321.839 84.4512 321.774 84.4518Z" fill="#CCCCCC"/>
<path d="M321.774 90.3936H235.244C235.179 90.3939 235.116 90.3683 235.069 90.3224C235.023 90.2764 234.996 90.2138 234.995 90.1483C234.995 90.0828 235.02 90.0197 235.066 89.9729C235.112 89.9261 235.174 89.8993 235.239 89.8984H321.774C321.839 89.8991 321.902 89.9255 321.948 89.9718C321.993 90.0182 322.019 90.0808 322.019 90.146C322.019 90.2112 321.993 90.2739 321.948 90.3202C321.902 90.3666 321.839 90.3929 321.774 90.3936Z" fill="#CCCCCC"/>
<path d="M321.774 96.3353H235.244C235.179 96.3356 235.116 96.31 235.069 96.2641C235.023 96.2181 234.996 96.1555 234.995 96.09C234.995 96.0245 235.02 95.9615 235.066 95.9146C235.112 95.8678 235.174 95.841 235.239 95.8402H321.774C321.839 95.8408 321.902 95.8672 321.948 95.9136C321.993 95.9599 322.019 96.0225 322.019 96.0877C322.019 96.153 321.993 96.2156 321.948 96.2619C321.902 96.3083 321.839 96.3346 321.774 96.3353Z" fill="#CCCCCC"/>
<path d="M321.774 102.277H235.244C235.179 102.277 235.116 102.252 235.069 102.206C235.023 102.16 234.996 102.097 234.995 102.032C234.995 101.966 235.02 101.903 235.066 101.856C235.112 101.809 235.174 101.783 235.239 101.782H321.774C321.839 101.783 321.902 101.809 321.948 101.855C321.993 101.902 322.019 101.964 322.019 102.029C322.019 102.095 321.993 102.157 321.948 102.204C321.902 102.25 321.839 102.276 321.774 102.277Z" fill="#CCCCCC"/>
<path d="M415.446 258.685V230.623C415.446 229.382 414.954 228.193 414.078 227.316C413.203 226.439 412.015 225.946 410.776 225.946H304.522C303.283 225.946 302.095 226.439 301.219 227.316C300.343 228.193 299.851 229.382 299.851 230.623V258.685H415.446Z" fill="#CCCCCC"/>
<path d="M415.446 269.208H299.851V305.455H415.446V269.208Z" fill="#CCCCCC"/>
<path d="M299.851 315.978V344.04C299.851 345.28 300.343 346.47 301.219 347.347C302.095 348.224 303.283 348.717 304.522 348.717H410.776C412.015 348.717 413.203 348.224 414.078 347.347C414.954 346.47 415.446 345.28 415.446 344.04V315.978H299.851Z" fill="#CCCCCC"/>
<path d="M357.065 246.992C359 246.992 360.568 245.422 360.568 243.484C360.568 241.547 359 239.977 357.065 239.977C355.13 239.977 353.562 241.547 353.562 243.484C353.562 245.422 355.13 246.992 357.065 246.992Z" fill="white"/>
<path d="M357.065 293.762C359 293.762 360.568 292.192 360.568 290.254C360.568 288.317 359 286.747 357.065 286.747C355.13 286.747 353.562 288.317 353.562 290.254C353.562 292.192 355.13 293.762 357.065 293.762Z" fill="white"/>
<path d="M357.253 339.542C359.187 339.542 360.756 337.971 360.756 336.034C360.756 334.097 359.187 332.526 357.253 332.526C355.318 332.526 353.75 334.097 353.75 336.034C353.75 337.971 355.318 339.542 357.253 339.542Z" fill="white"/>
<path d="M402.341 193.949V226.134H321.818C317.558 226.279 313.415 224.725 310.299 221.813C307.183 218.9 305.349 214.868 305.2 210.602C305.052 206.336 306.601 202.185 309.508 199.063C312.414 195.94 316.439 194.101 320.699 193.949C321.072 193.936 321.445 193.936 321.818 193.949H402.341Z" fill="#F2F2F2"/>
<path d="M404.319 225.886C404.319 226.215 404.188 226.529 403.957 226.761C403.725 226.994 403.41 227.124 403.083 227.124H320.384C315.894 227.125 311.587 225.34 308.41 222.162C305.234 218.984 303.448 214.672 303.445 210.176C303.442 205.679 305.223 201.365 308.396 198.183C311.569 195.001 315.873 193.211 320.364 193.207H403.083C403.245 193.206 403.406 193.238 403.557 193.3C403.707 193.362 403.844 193.453 403.959 193.568C404.074 193.683 404.165 193.82 404.228 193.97C404.29 194.121 404.322 194.282 404.322 194.445C404.322 194.607 404.29 194.769 404.228 194.919C404.165 195.069 404.074 195.206 403.959 195.321C403.844 195.436 403.707 195.527 403.557 195.589C403.406 195.651 403.245 195.683 403.083 195.682H320.384C316.552 195.687 312.878 197.216 310.17 199.931C307.461 202.647 305.94 206.328 305.94 210.165C305.94 214.003 307.461 217.684 310.17 220.4C312.878 223.115 316.552 224.643 320.384 224.648H403.083C403.41 224.649 403.725 224.779 403.957 225.011C404.188 225.243 404.319 225.558 404.319 225.886Z" fill="#3F3D56"/>
<path d="M402.341 201.377H315.811C315.745 201.377 315.682 201.351 315.636 201.305C315.589 201.259 315.563 201.197 315.562 201.131C315.561 201.066 315.587 201.003 315.632 200.956C315.678 200.909 315.741 200.882 315.806 200.881H402.341C402.406 200.882 402.468 200.908 402.514 200.955C402.56 201.001 402.586 201.064 402.586 201.129C402.586 201.194 402.56 201.257 402.514 201.303C402.468 201.35 402.406 201.376 402.341 201.377H402.341Z" fill="#CCCCCC"/>
<path d="M402.341 207.318H315.811C315.745 207.319 315.682 207.293 315.636 207.247C315.589 207.201 315.563 207.139 315.562 207.073C315.561 207.008 315.587 206.945 315.632 206.898C315.678 206.851 315.741 206.824 315.806 206.823H402.341C402.406 206.824 402.468 206.85 402.514 206.897C402.56 206.943 402.586 207.006 402.586 207.071C402.586 207.136 402.56 207.199 402.514 207.245C402.468 207.291 402.406 207.318 402.341 207.318H402.341Z" fill="#CCCCCC"/>
<path d="M402.341 213.26H315.811C315.745 213.26 315.682 213.235 315.636 213.189C315.589 213.143 315.563 213.08 315.562 213.015C315.561 212.949 315.587 212.886 315.632 212.839C315.678 212.793 315.741 212.766 315.806 212.765H402.341C402.406 212.766 402.468 212.792 402.514 212.838C402.56 212.885 402.586 212.947 402.586 213.013C402.586 213.078 402.56 213.14 402.514 213.187C402.468 213.233 402.406 213.259 402.341 213.26H402.341Z" fill="#CCCCCC"/>
<path d="M402.341 219.202H315.811C315.745 219.202 315.682 219.177 315.636 219.131C315.589 219.085 315.563 219.022 315.562 218.957C315.561 218.891 315.587 218.828 315.632 218.781C315.678 218.734 315.741 218.708 315.806 218.707H402.341C402.406 218.707 402.468 218.734 402.514 218.78C402.56 218.826 402.586 218.889 402.586 218.954C402.586 219.019 402.56 219.082 402.514 219.128C402.468 219.175 402.406 219.201 402.341 219.202H402.341Z" fill="#CCCCCC"/>
<path d="M307.772 66.288H271.085C270.737 66.2877 270.393 66.3678 270.081 66.5219L260.821 71.1638C260.517 71.2935 260.257 71.5101 260.074 71.7866C259.891 72.0631 259.794 72.3873 259.794 72.7189C259.794 73.0504 259.891 73.3746 260.074 73.6512C260.257 73.9277 260.517 74.1443 260.821 74.274L270.081 78.9158C270.393 79.07 270.737 79.15 271.085 79.1497H307.772C308.277 79.179 308.774 79.0077 309.154 78.6728C309.535 78.338 309.768 77.8666 309.803 77.3607V68.0769C309.768 67.5711 309.534 67.0997 309.154 66.7649C308.774 66.4301 308.277 66.2587 307.772 66.288Z" fill="#3F3D56"/>
<path d="M309.803 68.077V77.3608C309.768 77.8666 309.535 78.3381 309.154 78.6729C308.774 79.0077 308.277 79.1791 307.772 79.1498H300.462V66.288H307.772C308.277 66.2587 308.774 66.4301 309.154 66.7649C309.535 67.0998 309.768 67.5712 309.803 68.077Z" fill="#6C63FF"/>
<path d="M87.8225 248.2C92.5464 249.863 97.6184 250.279 102.55 249.41C107.481 248.54 112.106 246.413 115.978 243.234C125.84 234.945 128.931 221.29 131.447 208.645C133.928 196.179 136.408 183.713 138.888 171.247L123.31 181.988C112.106 189.713 100.65 197.686 92.8932 208.875C85.1361 220.064 81.7501 235.338 87.9827 247.446" fill="#E6E6E6"/>
<path d="M89.1542 293.479C87.5774 281.978 85.9561 270.329 87.0621 258.704C88.0444 248.38 91.1897 238.297 97.5931 230.029C100.992 225.649 105.128 221.896 109.815 218.939C111.037 218.166 112.162 220.106 110.945 220.875C102.835 226.008 96.5629 233.586 93.0319 242.519C89.132 252.452 88.5057 263.28 89.1778 273.832C89.5842 280.213 90.4455 286.552 91.3135 292.883C91.3819 293.169 91.3393 293.471 91.1941 293.727C91.0489 293.983 90.8121 294.174 90.5315 294.262C90.2452 294.34 89.9401 294.301 89.6823 294.154C89.4244 294.007 89.2347 293.765 89.1543 293.479L89.1542 293.479Z" fill="#F2F2F2"/>
<path d="M104.341 273.127C106.368 276.211 109.152 278.72 112.428 280.413C115.703 282.106 119.359 282.925 123.043 282.793C132.509 282.343 140.402 275.726 147.506 269.445L168.52 250.865L154.613 250.199C144.611 249.72 134.351 249.273 124.825 252.361C115.299 255.45 106.513 262.883 104.771 272.757" fill="#E6E6E6"/>
<path d="M84.6981 300.091C92.2874 286.643 101.09 271.698 116.82 266.921C121.193 265.598 125.779 265.124 130.331 265.524C131.765 265.648 131.407 267.862 129.975 267.739C122.346 267.105 114.731 269.122 108.414 273.451C102.334 277.595 97.6008 283.356 93.5944 289.465C91.1404 293.208 88.9422 297.108 86.7436 301.004C86.041 302.249 83.9872 301.35 84.6981 300.091L84.6981 300.091Z" fill="#F2F2F2"/>
<path d="M72.5378 314.245C72.7936 311.278 73.8574 308.438 75.6134 306.035C77.3695 303.631 79.7504 301.756 82.497 300.614V292.84H95.5181V300.859C98.1295 302.057 100.377 303.928 102.031 306.279C103.685 308.631 104.687 311.379 104.935 314.245L107.997 349.886H69.476L72.5378 314.245Z" fill="#F2F2F2"/>
<path d="M515.36 144.067L511.487 142.434L508.83 122.989H473.444L470.563 142.355L467.098 144.09C466.932 144.173 466.799 144.309 466.721 144.477C466.642 144.646 466.623 144.835 466.665 145.016C466.708 145.197 466.81 145.358 466.955 145.473C467.101 145.588 467.281 145.651 467.466 145.651H515.041C515.231 145.651 515.415 145.585 515.562 145.464C515.709 145.344 515.81 145.176 515.848 144.99C515.885 144.803 515.857 144.61 515.769 144.441C515.68 144.273 515.536 144.141 515.36 144.067Z" fill="#E6E6E6"/>
<path d="M578.244 125.576H404.418C403.506 125.574 402.632 125.21 401.988 124.563C401.344 123.917 400.982 123.041 400.982 122.127V97.5818H581.68V122.127C581.68 123.041 581.318 123.917 580.674 124.563C580.029 125.21 579.156 125.574 578.244 125.576Z" fill="#CCCCCC"/>
<path d="M581.861 109.183H400.824V4.15717C400.825 3.05499 401.263 1.99831 402.041 1.21897C402.819 0.439617 403.874 0.00123327 404.975 0H577.71C578.81 0.00123325 579.866 0.439618 580.644 1.21897C581.422 1.99831 581.86 3.05498 581.861 4.15717L581.861 109.183Z" fill="#3F3D56"/>
<path d="M571.049 101.56H411.636C410.788 101.559 409.974 101.221 409.374 100.62C408.774 100.019 408.437 99.2048 408.436 98.355V10.8277C408.437 9.97792 408.774 9.16325 409.374 8.56239C409.974 7.96153 410.788 7.62354 411.636 7.62257H571.049C571.897 7.62354 572.711 7.96153 573.311 8.56239C573.911 9.16325 574.248 9.97792 574.249 10.8277V98.355C574.248 99.2048 573.911 100.019 573.311 100.62C572.711 101.221 571.897 101.559 571.049 101.56Z" fill="white"/>
<path d="M529.062 132.444C530.091 131.492 531.316 130.778 532.651 130.351C533.986 129.924 535.398 129.796 536.787 129.975C538.177 130.154 539.51 130.636 540.694 131.387C541.877 132.138 542.882 133.14 543.637 134.321L565.2 130.483L570.725 143.035L540.199 148.028C538.132 149.167 535.72 149.507 533.42 148.984C531.119 148.46 529.091 147.111 527.718 145.19C526.345 143.269 525.724 140.91 525.971 138.561C526.219 136.212 527.319 134.035 529.062 132.444Z" fill="#FFB6B6"/>
<path d="M549.025 148.472L571.504 148.191L574.35 148.153L620.085 147.575C620.085 147.575 632.505 135.71 643.319 123.495L641.803 112.516C640.325 101.741 634.987 91.8715 626.784 84.7435C611.295 95.1074 602.313 115.622 602.313 115.622L573.956 122.414L571.119 123.093L553.499 127.309L549.025 148.472Z" fill="#6C63FF"/>
<path d="M664.099 215.952H622.139C622.139 217.753 576.27 219.214 576.27 219.214C575.259 219.977 574.336 220.852 573.522 221.823C571.073 224.747 569.735 228.444 569.743 232.26V234.869C569.744 239.194 571.461 243.341 574.515 246.399C577.568 249.457 581.71 251.176 586.028 251.177H664.099C668.417 251.174 672.557 249.454 675.611 246.397C678.664 243.339 680.381 239.193 680.385 234.869V232.26C680.379 227.937 678.661 223.792 675.608 220.735C672.555 217.678 668.417 215.958 664.099 215.952Z" fill="#E4E4E4"/>
<path d="M633.586 250.53H616.649V348.426H633.586V250.53Z" fill="#E4E4E4"/>
<path d="M568.444 347.83C568.444 349.662 594.109 348.539 625.769 348.539C657.428 348.539 683.094 349.662 683.094 347.83C683.094 345.997 657.428 331.465 625.769 331.465C594.109 331.465 568.444 345.997 568.444 347.83Z" fill="#E4E4E4"/>
<path d="M557.067 336.644L544.461 336.643L538.465 287.956L557.068 287.957L557.067 336.644Z" fill="#FFB6B6"/>
<path d="M560.281 348.88L519.637 348.878V348.363C519.637 344.162 521.304 340.133 524.271 337.162C527.238 334.191 531.261 332.522 535.457 332.522H535.458L560.282 332.523L560.281 348.88Z" fill="#2F2E41"/>
<path d="M519.811 336.644L507.206 336.643L501.209 287.956L519.813 287.957L519.811 336.644Z" fill="#FFB6B6"/>
<path d="M523.026 348.88L482.381 348.878V348.363C482.382 344.162 484.049 340.133 487.015 337.162C489.982 334.191 494.006 332.522 498.201 332.522H498.202L523.026 332.523L523.026 348.88Z" fill="#2F2E41"/>
<path d="M632.725 56.347C644.829 56.347 654.642 46.5209 654.642 34.3998C654.642 22.2787 644.829 12.4526 632.725 12.4526C620.62 12.4526 610.808 22.2787 610.808 34.3998C610.808 46.5209 620.62 56.347 632.725 56.347Z" fill="#FFB6B6"/>
<path d="M668.197 184.773C668.197 184.773 675.551 223.713 647.571 228.671C619.591 233.63 579.201 237.115 579.201 237.115L561.064 321.856L536.696 319.677C536.696 319.677 539.937 217.669 547.907 209.688C555.876 201.707 606.248 177.811 606.248 177.811L668.197 184.773Z" fill="#2F2E41"/>
<path d="M613.55 168.454L601.313 180.747C601.313 180.747 512.954 194.999 509.546 215.435C504.399 246.289 498.321 313.383 498.321 313.383L524.887 311.388L535.304 235.12L577.81 225.438L626.169 199.047L613.55 168.454Z" fill="#2F2E41"/>
<path d="M653.815 21.299C651.651 17.2113 648.902 9.06473 644.536 7.55384C642.111 6.74862 639.604 6.21394 637.062 5.95951L629.64 8.81823L633.679 5.67206C632.893 5.62514 632.107 5.58678 631.321 5.55698L626.313 7.48578L628.875 5.49024C624.206 5.44226 619.387 5.92839 615.769 8.77456C612.685 11.2009 609.63 20.3925 609.136 24.2886C608.607 28.0157 608.792 31.8095 609.68 35.4675L610.949 36.6751C611.392 35.6565 611.726 34.5932 611.944 33.5035C612.398 31.4674 613.272 29.5484 614.508 27.869C615.744 26.1895 617.316 24.7864 619.124 23.749L619.193 23.71C621.32 22.5112 623.901 22.5665 626.34 22.6544L637.925 23.0718C640.713 23.1723 643.714 23.3489 645.887 25.0997C647.268 26.3912 648.354 27.9665 649.07 29.7176C650.15 31.8999 652.26 40.1311 652.26 40.1311C652.26 40.1311 653.454 38.5774 654.026 39.7338C654.944 36.7166 655.502 33.6012 655.688 30.4527C655.871 27.2902 655.225 24.1347 653.815 21.299Z" fill="#2F2E41"/>
<path d="M730.47 44.0379C729.072 44.1301 727.711 44.5282 726.483 45.204C725.256 45.8798 724.191 46.817 723.364 47.9496C722.537 49.0821 721.968 50.3825 721.697 51.7591C721.426 53.1356 721.46 54.5549 721.796 55.9169L704.172 68.9356L709.46 81.5902L734.091 62.8554C736.339 62.1382 738.245 60.6203 739.45 58.5894C740.655 56.5585 741.073 54.1556 740.627 51.8361C740.181 49.5166 738.9 47.4417 737.028 46.0044C735.156 44.5672 732.823 43.8675 730.47 44.0379Z" fill="#FFB6B6"/>
<path d="M727.634 70.6156L683.451 119.753C683.451 119.753 662.322 112.98 645.981 105.637L638.64 83.0584C636.935 77.8205 636.208 72.3132 636.494 66.8116C659.147 60.7754 685.495 83.2354 685.495 83.2354L718.568 57.2937L727.634 70.6156Z" fill="#6C63FF"/>
<path d="M624.539 188.403C616.656 185.676 608.505 182.857 599.713 181.798L599.336 181.752L599.44 181.386C608.541 149.387 606.269 128.917 601.809 98.1691C600.861 91.5367 602.08 84.775 605.284 78.8931C608.488 73.0113 613.506 68.3248 619.588 65.5332L619.642 65.5087L644.752 63.9109L644.809 63.9074L663.071 69.2859C665.698 70.0654 667.998 71.6858 669.617 73.899C671.237 76.1122 672.087 78.7961 672.037 81.5394C671.839 91.6515 672.259 102.941 672.703 114.894C673.7 141.709 674.73 169.437 668.883 187.427L668.852 187.522L668.774 187.583C663.399 191.967 656.664 194.336 649.731 194.281C641.534 194.281 633.169 191.388 624.539 188.403Z" fill="#6C63FF"/>
<path d="M806.832 351H1.16763C0.857958 351 0.560969 350.877 0.341996 350.658C0.123024 350.438 0 350.141 0 349.831C0 349.521 0.123024 349.223 0.341996 349.004C0.560969 348.785 0.857958 348.661 1.16763 348.661H806.832C807.142 348.661 807.439 348.785 807.658 349.004C807.877 349.223 808 349.521 808 349.831C808 350.141 807.877 350.438 807.658 350.658C807.439 350.877 807.142 351 806.832 351Z" fill="#CCCCCC"/>
</g>
<defs>
<clipPath id="clip0">
<rect width="808" height="351" fill="white"/>
</clipPath>
</defs>
</svg>
